<svg width="0" height="0" class="hidden">
  <symbol fill="none" xmlns="http://www.w3.org/2000/svg" viewBox="0 0 14 6" id="arrow-left">
    <path d="M14 2V4H3V6L0 3L3 0V2H14Z" fill="#292929"></path>
  </symbol>
  <symbol fill="none" xmlns="http://www.w3.org/2000/svg" viewBox="0 0 14 6" id="arrow-right">
    <path d="M0 4V2L11 2V0L14 3L11 6V4L0 4Z" fill="#292929"></path>
  </symbol>
  <symbol fill="none" xmlns="http://www.w3.org/2000/svg" viewBox="0 0 30 22" id="burger-default">
    <line y1="21" x2="30" y2="21" stroke="#F1CDB3" stroke-width="2"></line>
    <line y1="11" x2="30" y2="11" stroke="#F1CDB3" stroke-width="2"></line>
    <line y1="1" x2="30" y2="1" stroke="#F1CDB3" stroke-width="2"></line>
  </symbol>
  <symbol fill="none" xmlns="http://www.w3.org/2000/svg" viewBox="0 0 30 30" id="burger-opened">
    <line x1="24" y1="30" x2="24" stroke="#F1CDB3" stroke-width="2"></line>
    <line x1="14" y1="30" x2="14" stroke="#F1CDB3" stroke-width="2"></line>
    <line x1="4" y1="30" x2="4" stroke="#F1CDB3" stroke-width="2"></line>
  </symbol>
  <symbol fill="none" xmlns="http://www.w3.org/2000/svg" viewBox="0 0 30 23" id="credit-card">
    <path d="M25.9815 23H4.01915C1.80285 23 0 21.2046 0 19.0001V3.9999C0 1.79421 1.80285 0 4.01915 0H25.9808C28.196 0 30 1.79421 30 3.9999V19.0001C30.0006 21.2052 28.1972 23 25.9815 23ZM4.01915 1.14285C2.43563 1.14285 1.14836 2.42396 1.14836 3.9999V19.0001C1.14836 20.5755 2.43563 21.8571 4.01915 21.8571H25.9808C27.5638 21.8571 28.8516 20.5755 28.8516 19.0001V3.9999C28.8516 2.42396 27.5638 1.14285 25.9808 1.14285H4.01915ZM20.7037 3.35993C22.1363 3.35993 23.2977 4.51532 23.2977 5.94153C23.2977 7.36774 22.1368 8.52376 20.7037 8.52376C19.2706 8.52376 18.1097 7.36783 18.1097 5.94153C18.1097 4.51523 19.2712 3.35993 20.7037 3.35993ZM24.3204 3.35993C25.7529 3.35993 26.9151 4.51532 26.9151 5.94153C26.9151 7.36774 25.7536 8.52376 24.3204 8.52376C22.8873 8.52376 21.7264 7.36783 21.7264 5.94153C21.7264 4.51523 22.8879 3.35993 24.3204 3.35993ZM3.0861 16.3339H7.8683V18.0481H3.0861V16.3339ZM9.43467 16.3339H14.2175V18.0481H9.43467V16.3339ZM15.782 16.3339H20.5659V18.0481H15.782V16.3339ZM22.1305 16.3339H26.9144V18.0481H22.1305V16.3339ZM3.0861 3.36046H12.1263V5.07474H3.0861V3.36046ZM3.0861 6.76208H7.86946V8.47637H3.0861V6.76208Z" fill="#292929"></path>
  </symbol>
  <symbol fill="none" xmlns="http://www.w3.org/2000/svg" viewBox="0 0 40 26" id="mail">
    <path d="M39.315 0H0.684964C0.5033 0 0.329077 0.0732456 0.200621 0.203625C0.0721657 0.334003 0 0.510836 0 0.695219V25.3048C0 25.4892 0.0721657 25.666 0.200621 25.7964C0.329077 25.9268 0.5033 26 0.684964 26H39.315C39.4967 26 39.6709 25.9268 39.7994 25.7964C39.9278 25.666 40 25.4892 40 25.3048V0.695219C40 0.510836 39.9278 0.334003 39.7994 0.203625C39.6709 0.0732456 39.4967 0 39.315 0ZM32.5774 15.0331C32.6846 15.5259 32.7954 16.0355 32.6513 16.2882C32.4966 16.5596 31.9966 16.7173 31.5131 16.8699C31.1316 16.9902 30.7373 17.1147 30.3857 17.3212C30.0461 17.5206 29.7523 17.8001 29.4683 18.0704C29.0772 18.4426 28.7079 18.794 28.374 18.794C28.04 18.794 27.6706 18.4425 27.2797 18.0704C26.9956 17.8001 26.7018 17.5205 26.3622 17.3212C26.0107 17.1147 25.6163 16.9903 25.2348 16.8699C24.7513 16.7173 24.2513 16.5596 24.0967 16.2882C23.9526 16.0355 24.0633 15.5259 24.1705 15.0331C24.2584 14.6285 24.3493 14.2103 24.3493 13.7821C24.3493 13.354 24.2584 12.9356 24.1705 12.5311C24.0633 12.0383 23.9526 11.5288 24.0967 11.2759C24.2513 11.0046 24.7513 10.8468 25.2348 10.6942C25.6163 10.5739 26.0107 10.4494 26.3622 10.243C26.7018 10.0435 26.9956 9.76403 27.2797 9.49373C27.6706 9.12165 28.04 8.77015 28.374 8.77015C28.7079 8.77015 29.0773 9.12165 29.4683 9.49373C29.7523 9.76403 30.0461 10.0435 30.3857 10.243C30.7373 10.4493 31.1316 10.5738 31.5131 10.6941C31.9966 10.8467 32.4966 11.0045 32.6512 11.2758C32.7954 11.5286 32.6846 12.0381 32.5774 12.5309C32.4895 12.9354 32.3986 13.3537 32.3986 13.7819C32.3986 14.2102 32.4895 14.6286 32.5774 15.0331ZM30.5975 8.66076C30.5345 8.60237 30.4705 8.54156 30.4053 8.47955C29.8904 7.98955 29.2497 7.3798 28.374 7.3798C27.4982 7.3798 26.8575 7.98955 26.3426 8.47955C26.1045 8.70609 25.8796 8.92013 25.6761 9.03961C25.4574 9.168 25.1518 9.26449 24.8281 9.36655C24.1276 9.58763 23.3336 9.8381 22.9109 10.5797C22.5001 11.3004 22.6768 12.1134 22.8328 12.8307C22.9081 13.1777 22.9794 13.5055 22.9794 13.7821C22.9794 14.0587 22.9081 14.3866 22.8328 14.7336C22.6975 15.3556 22.5473 16.0496 22.7775 16.693L19.9997 19.5464L2.32449 1.39044H37.6748L30.5975 8.66076ZM11.7007 13L1.36993 23.6116V2.38812L11.7007 13ZM12.6635 13.989L19.5124 21.0242C19.5761 21.0896 19.6519 21.1416 19.7356 21.177C19.8192 21.2125 19.9089 21.2308 19.9996 21.2308C20.0902 21.2308 20.18 21.2125 20.2636 21.177C20.3472 21.1416 20.4231 21.0896 20.4868 21.0242L23.6841 17.7398C24.044 17.9494 24.4495 18.0781 24.8281 18.1976C25.1518 18.2997 25.4575 18.3962 25.6761 18.5245C25.8796 18.644 26.1044 18.8581 26.3426 19.0846C26.8575 19.5746 27.4982 20.1844 28.374 20.1844C29.2496 20.1844 29.8904 19.5746 30.4053 19.0846C30.6434 18.858 30.8682 18.644 31.0718 18.5244C31.2043 18.4466 31.3691 18.3806 31.5502 18.3179L37.675 24.6094H2.32431L12.6635 13.989ZM32.9664 17.7946C33.3117 17.6108 33.6223 17.3612 33.8371 16.9846C34.2479 16.2639 34.0711 15.4508 33.9151 14.7336C33.8398 14.3866 33.7686 14.0587 33.7686 13.7821C33.7686 13.5055 33.8398 13.1777 33.9151 12.8307C34.0711 12.1134 34.2479 11.3005 33.837 10.5797C33.4142 9.8381 32.6203 9.58763 31.9197 9.36655L31.8559 9.34634L38.6301 2.38738V23.6122L32.9664 17.7946Z" fill="#F1CDB3"></path>
    <path d="M28.374 10.2424C26.451 10.2424 24.8865 11.8302 24.8865 13.782C24.8865 15.7337 26.451 17.3215 28.374 17.3215C30.297 17.3215 31.8614 15.7337 31.8614 13.782C31.8614 11.8302 30.2969 10.2424 28.374 10.2424ZM28.374 15.9311C27.2064 15.9311 26.2564 14.967 26.2564 13.782C26.2564 12.5969 27.2063 11.6328 28.374 11.6328C29.5416 11.6328 30.4915 12.5969 30.4915 13.782C30.4915 14.967 29.5415 15.9311 28.374 15.9311Z" fill="#F1CDB3"></path>
  </symbol>
  <symbol fill="none" xmlns="http://www.w3.org/2000/svg" viewBox="0 0 40 32" id="phone">
    <path d="M39.9461 8.89543L37.5102 2.9049C37.4685 2.80251 37.4043 2.71139 37.3226 2.63868C37.2408 2.56598 37.1437 2.51367 37.0389 2.48585L34.111 1.70799C25.5388 -0.569376 14.4609 -0.569281 5.88906 1.70799L2.96105 2.48585C2.85626 2.51367 2.75918 2.56598 2.67743 2.63868C2.59568 2.71139 2.53147 2.80251 2.48984 2.9049L0.0539764 8.89543C-0.0131281 9.06038 -0.0178273 9.24503 0.0407965 9.41333L1.01509 12.2089C1.07166 12.3713 1.18339 12.5075 1.32986 12.5925C1.47633 12.6775 1.64776 12.7056 1.8128 12.6717L11.0692 10.7747C11.2084 10.7462 11.3359 10.675 11.4348 10.5706C11.5337 10.4661 11.5993 10.3334 11.623 10.19L12.4245 5.32594C16.8365 4.18994 23.1635 4.18994 27.5753 5.32594L28.3769 10.19C28.4006 10.3335 28.4662 10.4663 28.5651 10.5707C28.664 10.6751 28.7915 10.7463 28.9307 10.7748L38.187 12.6718C38.3521 12.7056 38.5234 12.6774 38.6699 12.5924C38.8164 12.5075 38.9281 12.3714 38.9848 12.209L39.9592 9.41343C40.0178 9.2451 40.0131 9.06043 39.9461 8.89543ZM2.13193 11.1412L1.63183 9.70624L10.5973 7.78606L10.321 9.46295L2.13193 11.1412ZM11.6222 4.0568C11.4935 4.09314 11.3777 4.16636 11.2883 4.26784C11.1989 4.36933 11.1396 4.49486 11.1174 4.62969L10.848 6.26453L1.85991 8.1896L3.65015 3.78707L6.2409 3.09877C14.5991 0.878304 25.4007 0.878208 33.7593 3.09877L36.35 3.78707L38.1403 8.1896L29.1522 6.26453L28.8828 4.62969C28.8606 4.49487 28.8013 4.36936 28.7119 4.26788C28.6224 4.1664 28.5066 4.09318 28.378 4.0568C23.6016 2.70615 16.3984 2.70615 11.6222 4.0568ZM37.8681 11.1412L29.6792 9.46295L29.4028 7.78606L38.3682 9.70624L37.8681 11.1412Z" fill="#F1CDB3"></path>
    <path d="M33.2901 13.1186C33.261 12.9842 33.1948 12.8612 33.0995 12.7643C33.0041 12.6673 32.8836 12.6005 32.7522 12.5717L27.9776 11.526L27.3764 7.51395C27.351 7.34431 27.2672 7.18959 27.1401 7.07781C27.013 6.96603 26.851 6.90458 26.6835 6.90458H24.814V5.96398C24.814 5.56724 24.5002 5.2456 24.1129 5.2456C23.7257 5.2456 23.4119 5.56724 23.4119 5.96398V6.90458H16.5882V5.96398C16.5882 5.56724 16.2744 5.2456 15.8871 5.2456C15.4999 5.2456 15.1861 5.56724 15.1861 5.96398V6.90458H13.3166C13.1491 6.90458 12.9871 6.96603 12.86 7.07781C12.7329 7.18959 12.6491 7.34431 12.6237 7.51395L12.0224 11.526L7.24791 12.5717C7.11654 12.6005 6.996 12.6673 6.90063 12.7643C6.80527 12.8612 6.73908 12.9842 6.70996 13.1186L3.46796 28.0878C3.45692 28.1389 3.45134 28.1911 3.45132 28.2434V31.2816C3.45132 31.4721 3.52519 31.6549 3.65666 31.7896C3.78814 31.9243 3.96645 32 4.15239 32H35.8477C36.0336 32 36.212 31.9243 36.3434 31.7896C36.4749 31.6549 36.5488 31.4721 36.5488 31.2816V28.2434C36.5488 28.1911 36.5432 28.1389 36.5321 28.0878L33.2901 13.1186ZM7.98131 13.8802L12.7885 12.8273C12.9276 12.7968 13.0544 12.7238 13.152 12.6178C13.2496 12.5118 13.3134 12.3779 13.335 12.2338L13.9183 8.34134H26.0819L26.6651 12.2338C26.6867 12.3779 26.7505 12.5118 26.8481 12.6178C26.9457 12.7238 27.0725 12.7968 27.2115 12.8273L32.0189 13.8802L34.9741 27.5251H5.0261L7.98131 13.8802ZM11.7966 28.9618L10.8935 30.5632H9.82782L10.7309 28.9618H11.7966ZM13.416 28.9618H28.6721L27.769 30.5632H12.513L13.416 28.9618ZM4.85345 28.9618H9.11142L8.20836 30.5632H4.85345V28.9618ZM29.3885 30.5632L30.2916 28.9618H35.1466V30.5632H29.3885Z" fill="#F1CDB3"></path>
    <path d="M20 26.1606C24.1492 26.1606 27.5248 22.7016 27.5248 18.45C27.5248 14.1983 24.1492 10.7393 20 10.7393C15.8509 10.7393 12.4753 14.1983 12.4753 18.45C12.4753 22.7016 15.8509 26.1606 20 26.1606ZM20 12.1761C23.3761 12.1761 26.1227 14.9905 26.1227 18.45C26.1227 21.9094 23.3761 24.7238 20 24.7238C16.624 24.7238 13.8774 21.9094 13.8774 18.45C13.8774 14.9905 16.624 12.1761 20 12.1761Z" fill="#F1CDB3"></path>
    <path d="M20 21.1847C21.4717 21.1847 22.6691 19.9578 22.6691 18.4497C22.6691 16.9416 21.4717 15.7147 20 15.7147C18.5283 15.7147 17.3309 16.9416 17.3309 18.4497C17.3309 19.9578 18.5283 21.1847 20 21.1847ZM20 17.1514C20.6987 17.1514 21.267 17.7338 21.267 18.4497C21.267 19.1656 20.6987 19.7479 20 19.7479C19.3014 19.7479 18.733 19.1656 18.733 18.4497C18.733 17.7339 19.3014 17.1514 20 17.1514Z" fill="#F1CDB3"></path>
  </symbol>
  <symbol fill="none" xmlns="http://www.w3.org/2000/svg" viewBox="0 0 60 60" id="icon-toys">
    <path d="M51.2132 8.78672C45.5469 3.1207 38.0133 0 30 0C21.9867 0 14.4531 3.1207 8.78684 8.78672C3.12047 14.4531 0 21.9866 0 30C0 38.0134 3.12047 45.5469 8.78684 51.2133C14.4531 56.8793 21.9867 60 30 60C38.0133 60 45.5469 56.8793 51.2132 51.2133C56.8795 45.5469 60 38.0134 60 30C60 21.9866 56.8795 14.4531 51.2132 8.78672ZM10.6314 49.3685C5.90438 44.6415 3.11918 38.4906 2.67352 31.8832C3.39 31.9077 4.1223 31.9755 4.86223 32.0856C10.1654 32.8733 15.5023 35.7234 19.8894 40.1106C24.2766 44.4979 27.1266 49.8346 27.9144 55.1379C28.0223 55.8586 28.0894 56.5849 28.1154 57.3132C21.7419 56.8775 15.4928 54.2298 10.6314 49.3685ZM30.7262 57.3682C30.7013 56.4931 30.6239 55.6203 30.4946 54.7545C29.6251 48.9019 26.5139 43.046 21.7338 38.2659C16.9538 33.4859 11.098 30.3746 5.2452 29.5051C4.37502 29.3751 3.49781 29.2977 2.61832 29.2732C2.64105 28.3972 2.7048 27.5283 2.8084 26.6682C3.73793 26.6987 4.68246 26.7843 5.62863 26.9248C12.0308 27.8757 18.4055 31.2484 23.5785 36.4213C28.7512 41.5939 32.1239 47.9687 33.075 54.3709C33.2133 55.3004 33.2987 56.237 33.3307 57.1763C32.4661 57.2814 31.5969 57.3455 30.7262 57.3682ZM49.3685 49.3685C45.5416 53.1952 40.8551 55.6504 35.9248 56.7348C35.881 55.8152 35.7912 54.8983 35.6557 53.9877C34.6229 47.0358 30.9889 40.1423 25.4234 34.5766C19.8575 29.0109 12.964 25.3772 6.0123 24.3444C5.0982 24.2082 4.17782 24.1182 3.25465 24.0746L3.2475 24.0805C4.35598 19.0238 6.88301 14.3798 10.6315 10.6314C14.2923 6.97055 18.7399 4.56516 23.4349 3.41402C23.4672 4.49215 23.5632 5.56742 23.7224 6.63422C24.755 13.5859 28.3889 20.4795 33.9546 26.0453C39.5203 31.611 46.4139 35.2447 53.3659 36.2775C54.4358 36.4373 55.5143 36.5334 56.5956 36.5653L56.6073 36.5459C55.4323 41.3595 52.9617 45.7754 49.3685 49.3685ZM57.1071 33.966C56.0064 33.955 54.8814 33.8653 53.7492 33.6972C47.3468 32.7461 40.972 29.3735 35.7993 24.2006C30.6265 19.0277 27.2538 12.6531 26.3029 6.25102C26.1354 5.12379 26.0455 4.00371 26.034 2.90824C26.8999 2.78261 27.7712 2.69826 28.6451 2.65547C28.6431 3.70254 28.7214 4.7775 28.8832 5.8677C29.7527 11.7204 32.8641 17.5763 37.6441 22.3562C38.1534 22.8654 38.9794 22.8654 39.4888 22.3562C39.9981 21.8469 39.9981 21.021 39.4888 20.5114C35.1016 16.1243 32.2516 10.7876 31.4638 5.48426C31.3205 4.51898 31.2499 3.57035 31.2521 2.65055C37.8434 2.94937 44.3467 5.60918 49.3688 10.6315C54.2461 15.5088 57.0565 21.902 57.3623 28.7483C56.4367 28.7503 55.4855 28.6804 54.5159 28.5363C53.8035 28.4305 53.1397 28.9225 53.034 29.635C52.9281 30.3476 53.42 31.0109 54.1325 31.1167C55.21 31.2768 56.2729 31.3569 57.3083 31.3569C57.3252 31.3569 57.3417 31.356 57.3586 31.356C57.316 32.2295 57.2321 33.1004 57.1071 33.966Z" fill="#F1CDB3"></path>
    <path d="M46.1517 25.775C45.8059 25.7756 45.4744 25.9131 45.2296 26.1573C44.9854 26.4021 44.848 26.7336 44.8474 27.0793C44.8474 27.4224 44.9857 27.7589 45.2296 28.0015C45.4721 28.2442 45.8087 28.3836 46.1517 28.3836C46.4947 28.3836 46.8313 28.2442 47.0739 28.0015C47.3176 27.7563 47.4549 27.425 47.456 27.0793C47.456 26.7363 47.3164 26.3998 47.0739 26.1573C46.829 25.9131 46.4975 25.7756 46.1517 25.775Z" fill="#F1CDB3"></path>
  </symbol>
  <symbol fill="none" xmlns="http://www.w3.org/2000/svg" viewBox="0 0 60 60" id="icon-bowls-and-cups">
    <path d="M59.985 39.8551L57.1255 20.6441C57.0792 15.0657 53.693 9.89303 47.8159 6.43765C42.9483 3.57605 36.6213 2 30.0001 2C23.3786 2 17.0515 3.57605 12.1838 6.43765C6.3069 9.89303 2.92054 15.0657 2.87437 20.6441L0.0148828 39.8551C0.00503905 39.9216 0 39.9887 0 40.056C0 45.7049 3.76452 50.936 10.3284 54.408C15.7022 57.2504 22.6883 58.8158 30.0001 58.8158C37.3116 58.8158 44.2978 57.2504 49.6716 54.408C56.2354 50.936 60 45.7049 60 40.056C59.9999 39.9888 59.9949 39.9216 59.985 39.8551ZM13.5668 8.78995C18.0215 6.17105 23.8576 4.72871 30.0001 4.72871C36.1424 4.72871 41.9785 6.17105 46.4331 8.78995C51.4956 11.7663 54.3993 16.1293 54.3993 20.7599C54.3993 25.3906 51.4957 29.7535 46.4332 32.7299C41.9785 35.3488 36.1424 36.7911 30.0001 36.7911C23.8577 36.7911 18.0215 35.3488 13.5669 32.7299C8.5044 29.7536 5.60073 25.3906 5.60073 20.7599C5.60073 16.1293 8.50428 11.7664 13.5668 8.78995ZM48.3956 51.996C43.4079 54.6342 36.875 56.0871 30.0001 56.0871C23.125 56.0871 16.592 54.6342 11.6044 51.996C6.00374 49.0333 2.77453 44.7218 2.72917 40.1535L4.60757 27.5342C6.17225 30.4612 8.75283 33.0645 12.1841 35.0819C17.0517 37.9434 23.3787 39.5195 30.0001 39.5195C36.6213 39.5195 42.9485 37.9434 47.816 35.0819C51.2473 33.0645 53.8279 30.461 55.3925 27.5342L57.2709 40.1535C57.2255 44.7219 53.9963 49.0335 48.3956 51.996Z" fill="#F1CDB3"></path>
    <path d="M30.0001 34.0618C39.3534 34.0618 47.6079 30.4427 50.5397 25.0569C51.29 23.6803 51.6707 22.2344 51.6707 20.7599C51.6707 17.0676 49.3194 13.652 45.0502 11.1422C41.0085 8.76631 35.6637 7.45791 30.0001 7.45791C24.3366 7.45791 18.9916 8.76643 14.9501 11.1423C10.6807 13.6521 8.32945 17.0676 8.32945 20.76C8.32945 22.2347 8.70996 23.6804 9.46008 25.0563C12.3923 30.4427 20.6467 34.0618 30.0001 34.0618ZM30.0001 31.3332C22.1546 31.3332 15.0282 28.5145 12.2557 24.4006C15.0293 20.2891 22.1568 17.4732 30.0001 17.4732C37.8435 17.4732 44.9711 20.2891 47.7446 24.4008C44.9726 28.5145 37.8458 31.3332 30.0001 31.3332ZM11.0579 20.76C11.058 18.0744 12.9313 15.4942 16.3328 13.4945C19.9617 11.3613 24.8154 10.1865 30 10.1865C35.1845 10.1865 40.0384 11.3613 43.6672 13.4946C47.0687 15.4942 48.9421 18.0743 48.9421 20.76C48.9421 20.9993 48.9259 21.238 48.896 21.4761C45.1332 17.3699 37.9658 14.7446 30 14.7446C22.0342 14.7446 14.8669 17.37 11.1041 21.4761C11.0738 21.2386 11.0584 20.9994 11.0579 20.76Z" fill="#F1CDB3"></path>
    <path d="M30 41.7701C29.8155 41.7701 29.6329 41.8076 29.4633 41.8801C29.2936 41.9527 29.1405 42.059 29.0131 42.1924C28.1243 43.1235 25.225 46.3365 25.225 48.5916C25.225 51.2246 27.367 53.3666 30 53.3666C32.633 53.3666 34.775 51.2246 34.775 48.5916C34.775 46.3365 31.8756 43.1235 30.987 42.1924C30.8595 42.059 30.7064 41.9527 30.5368 41.8801C30.3671 41.8076 30.1845 41.7701 30 41.7701ZM30 50.6381C28.8716 50.6381 27.9536 49.7201 27.9536 48.5917C27.9536 47.986 28.9058 46.5224 30 45.1941C31.0943 46.5226 32.0465 47.986 32.0465 48.5917C32.0465 49.7201 31.1284 50.6381 30 50.6381Z" fill="#F1CDB3"></path>
    <path d="M23.8843 23.8977H23.4637C22.7102 23.8977 22.0994 24.5085 22.0994 25.262C22.0994 26.0155 22.7102 26.6263 23.4637 26.6263H23.8843C24.6378 26.6263 25.2486 26.0155 25.2486 25.262C25.2486 24.5085 24.6378 23.8977 23.8843 23.8977Z" fill="#F1CDB3"></path>
    <path d="M40.074 23.8977H30.342C29.5884 23.8977 28.9777 24.5085 28.9777 25.262C28.9777 26.0155 29.5884 26.6263 30.342 26.6263H40.074C40.8275 26.6263 41.4383 26.0155 41.4383 25.262C41.4383 24.5085 40.8275 23.8977 40.074 23.8977Z" fill="#F1CDB3"></path>
  </symbol>
  <symbol fill="none" xmlns="http://www.w3.org/2000/svg" viewBox="0 0 60 60" id="icon-shampoos">
    <path d="M37.1303 17.1814V11.7391C37.1303 11.0188 36.5463 10.4348 35.826 10.4348H34.8477V1.3043C34.8477 0.583945 34.2637 0 33.5434 0H25.0651C24.3448 0 23.7608 0.583945 23.7608 1.3043V10.4347H22.7825C22.0622 10.4347 21.4782 11.0187 21.4782 11.739V17.1813C16.8977 19.0078 13.6521 23.4879 13.6521 28.712V58.6956C13.6521 59.4159 14.236 59.9999 14.9564 59.9999H43.6521C44.3725 59.9999 44.9564 59.4159 44.9564 58.6956V28.7121C44.9563 23.4879 41.7107 19.0078 37.1303 17.1814ZM26.3694 2.60871H32.239V10.4348H26.3694V2.60871ZM24.0867 13.0434H34.5214V16.3043H24.0867V13.0434ZM42.3476 57.3913H16.2607V28.7121C16.2607 23.3088 20.6565 18.913 26.0597 18.913H32.5486C37.9519 18.913 42.3476 23.3088 42.3476 28.7121V57.3913Z" fill="#F1CDB3"></path>
    <path d="M37.7825 27.3913H20.8259C20.1056 27.3913 19.5216 27.9752 19.5216 28.6956V52.826C19.5216 53.5464 20.1056 54.1303 20.8259 54.1303H37.7825C38.5028 54.1303 39.0868 53.5464 39.0868 52.826V44.6287C39.0868 43.9084 38.5028 43.3244 37.7825 43.3244C37.0621 43.3244 36.4782 43.9084 36.4782 44.6287V51.5217H22.1303V30H36.4782V34.1287C36.4782 34.8491 37.0621 35.433 37.7825 35.433C38.5028 35.433 39.0868 34.8491 39.0868 34.1287V28.6957C39.0868 27.9752 38.5028 27.3913 37.7825 27.3913Z" fill="#F1CDB3"></path>
    <path d="M37.7824 38.0645C37.0621 38.0645 36.4781 38.6484 36.4781 39.3688V39.4992C36.4781 40.2195 37.0621 40.8035 37.7824 40.8035C38.5028 40.8035 39.0867 40.2195 39.0867 39.4992V39.3688C39.0867 38.6484 38.5028 38.0645 37.7824 38.0645Z" fill="#F1CDB3"></path>
    <path d="M27.9922 41.1512C25.8345 41.1512 24.0792 42.9066 24.0792 45.0642C24.0792 47.2219 25.8345 48.9773 27.9922 48.9773C30.1499 48.9773 31.9052 47.2219 31.9052 45.0642C31.9052 42.9067 30.1499 41.1512 27.9922 41.1512ZM27.9922 46.3687C27.273 46.3687 26.6879 45.7835 26.6879 45.0644C26.6879 44.3452 27.273 43.7601 27.9922 43.7601C28.7114 43.7601 29.2965 44.3452 29.2965 45.0644C29.2965 45.7835 28.7115 46.3687 27.9922 46.3687Z" fill="#F1CDB3"></path>
    <path d="M34.8456 35.9842C34.8456 33.8266 33.0903 32.0712 30.9326 32.0712C28.7749 32.0712 27.0196 33.8266 27.0196 35.9842C27.0196 38.1419 28.7749 39.8973 30.9326 39.8973C33.0901 39.8974 34.8456 38.1419 34.8456 35.9842ZM30.9325 37.2887C30.2133 37.2887 29.6282 36.7035 29.6282 35.9844C29.6282 35.2652 30.2133 34.6801 30.9325 34.6801C31.6517 34.6801 32.2368 35.2652 32.2368 35.9844C32.2368 36.7035 31.6519 37.2887 30.9325 37.2887Z" fill="#F1CDB3"></path>
  </symbol>
  <symbol fill="none" xmlns="http://www.w3.org/2000/svg" viewBox="0 0 40 32" id="icon-email">
    <path d="M39.315 3H0.684964C0.5033 3 0.329077 3.07325 0.200621 3.20362C0.0721657 3.334 0 3.51084 0 3.69522V28.3048C0 28.4892 0.0721657 28.666 0.200621 28.7964C0.329077 28.9268 0.5033 29 0.684964 29H39.315C39.4967 29 39.6709 28.9268 39.7994 28.7964C39.9278 28.666 40 28.4892 40 28.3048V3.69522C40 3.51084 39.9278 3.334 39.7994 3.20362C39.6709 3.07325 39.4967 3 39.315 3ZM32.5774 18.0331C32.6846 18.5259 32.7954 19.0355 32.6513 19.2882C32.4966 19.5596 31.9966 19.7173 31.5131 19.8699C31.1316 19.9902 30.7373 20.1147 30.3857 20.3212C30.0461 20.5206 29.7523 20.8001 29.4683 21.0704C29.0772 21.4426 28.7079 21.794 28.374 21.794C28.04 21.794 27.6706 21.4425 27.2797 21.0704C26.9956 20.8001 26.7018 20.5205 26.3622 20.3212C26.0107 20.1147 25.6163 19.9903 25.2348 19.8699C24.7513 19.7173 24.2513 19.5596 24.0967 19.2882C23.9526 19.0355 24.0633 18.5259 24.1705 18.0331C24.2584 17.6285 24.3493 17.2103 24.3493 16.7821C24.3493 16.354 24.2584 15.9356 24.1705 15.5311C24.0633 15.0383 23.9526 14.5288 24.0967 14.2759C24.2513 14.0046 24.7513 13.8468 25.2348 13.6942C25.6163 13.5739 26.0107 13.4494 26.3622 13.243C26.7018 13.0435 26.9956 12.764 27.2797 12.4937C27.6706 12.1216 28.04 11.7701 28.374 11.7701C28.7079 11.7701 29.0773 12.1216 29.4683 12.4937C29.7523 12.764 30.0461 13.0435 30.3857 13.243C30.7373 13.4493 31.1316 13.5738 31.5131 13.6941C31.9966 13.8467 32.4966 14.0045 32.6512 14.2758C32.7954 14.5286 32.6846 15.0381 32.5774 15.5309C32.4895 15.9354 32.3986 16.3537 32.3986 16.7819C32.3986 17.2102 32.4895 17.6286 32.5774 18.0331ZM30.5975 11.6608C30.5345 11.6024 30.4705 11.5416 30.4053 11.4795C29.8904 10.9896 29.2497 10.3798 28.374 10.3798C27.4982 10.3798 26.8575 10.9896 26.3426 11.4795C26.1045 11.7061 25.8796 11.9201 25.6761 12.0396C25.4574 12.168 25.1518 12.2645 24.8281 12.3666C24.1276 12.5876 23.3336 12.8381 22.9109 13.5797C22.5001 14.3004 22.6768 15.1134 22.8328 15.8307C22.9081 16.1777 22.9794 16.5055 22.9794 16.7821C22.9794 17.0587 22.9081 17.3866 22.8328 17.7336C22.6975 18.3556 22.5473 19.0496 22.7775 19.693L19.9997 22.5464L2.32449 4.39044H37.6748L30.5975 11.6608ZM11.7007 16L1.36993 26.6116V5.38812L11.7007 16ZM12.6635 16.989L19.5124 24.0242C19.5761 24.0896 19.6519 24.1416 19.7356 24.177C19.8192 24.2125 19.9089 24.2308 19.9996 24.2308C20.0902 24.2308 20.18 24.2125 20.2636 24.177C20.3472 24.1416 20.4231 24.0896 20.4868 24.0242L23.6841 20.7398C24.044 20.9494 24.4495 21.0781 24.8281 21.1976C25.1518 21.2997 25.4575 21.3962 25.6761 21.5245C25.8796 21.644 26.1044 21.8581 26.3426 22.0846C26.8575 22.5746 27.4982 23.1844 28.374 23.1844C29.2496 23.1844 29.8904 22.5746 30.4053 22.0846C30.6434 21.858 30.8682 21.644 31.0718 21.5244C31.2043 21.4466 31.3691 21.3806 31.5502 21.3179L37.675 27.6094H2.32431L12.6635 16.989ZM32.9664 20.7946C33.3117 20.6108 33.6223 20.3612 33.8371 19.9846C34.2479 19.2639 34.0711 18.4508 33.9151 17.7336C33.8398 17.3866 33.7686 17.0587 33.7686 16.7821C33.7686 16.5055 33.8398 16.1777 33.9151 15.8307C34.0711 15.1134 34.2479 14.3005 33.837 13.5797C33.4142 12.8381 32.6203 12.5876 31.9197 12.3666L31.8559 12.3463L38.6301 5.38738V26.6122L32.9664 20.7946Z" fill="#F1CDB3"></path>
    <path d="M28.374 13.2424C26.451 13.2424 24.8865 14.8302 24.8865 16.782C24.8865 18.7337 26.451 20.3215 28.374 20.3215C30.297 20.3215 31.8614 18.7337 31.8614 16.782C31.8614 14.8302 30.2969 13.2424 28.374 13.2424ZM28.374 18.9311C27.2064 18.9311 26.2564 17.967 26.2564 16.782C26.2564 15.5969 27.2063 14.6328 28.374 14.6328C29.5416 14.6328 30.4915 15.5969 30.4915 16.782C30.4915 17.967 29.5415 18.9311 28.374 18.9311Z" fill="#F1CDB3"></path>
  </symbol>
  <symbol fill="none" xmlns="http://www.w3.org/2000/svg" viewBox="0 0 60 60" id="transportation">
    <path d="M55.0279 12.7115H48.0049V12.5095C48.0049 8.87665 45.0495 5.92118 41.4167 5.92118C37.7838 5.92118 34.8284 8.87665 34.8284 12.5095V12.7115H26.5806C23.8649 12.7115 21.6556 14.9209 21.6556 17.6365V23.2009H14.2693C12.5073 23.2009 10.9411 24.2562 10.2793 25.8893C10.2697 25.9133 10.2608 25.9375 10.2526 25.962L5.99157 38.8689C5.9529 38.8919 5.90357 38.9191 5.84216 38.9498C5.59853 39.0714 5.14279 39.2568 4.35857 39.4484C3.11412 39.7499 2.0074 40.4616 1.21672 41.4688C0.426051 42.4759 -0.00253772 43.72 1.13048e-05 45.0004V51.0987C1.13048e-05 53.1406 1.66114 54.8018 3.70302 54.8018L8.92724 54.802C9.47884 57.7562 12.0749 59.9999 15.1867 59.9999C18.2984 59.9999 20.8944 57.7561 21.4461 54.8021L39.8707 54.8024C40.4224 57.7564 43.0184 59.9999 46.1301 59.9999C49.2416 59.9999 51.8376 57.7565 52.3894 54.8026L55.7071 54.8027C58.2467 54.8027 59.9529 53.0963 59.9529 50.5568V20.08C59.9529 13.4295 56.5086 12.7115 55.0279 12.7115ZM37.1721 12.5095C37.1721 10.169 39.0762 8.26493 41.4167 8.26493C43.7571 8.26493 45.6612 10.169 45.6612 12.5095V12.7115H37.1721V12.5095ZM12.4648 26.7379C12.6145 26.3833 12.8657 26.0809 13.1867 25.8686C13.5077 25.6563 13.8843 25.5436 14.2692 25.5447H21.6554V38.8266H8.47372L12.4648 26.7379ZM15.1867 57.6562C12.967 57.6562 11.1612 55.8504 11.1612 53.6307C11.1612 53.6033 11.1627 53.5762 11.1633 53.5488C11.1641 53.5069 11.1643 53.465 11.1665 53.4234C11.1668 53.4168 11.1676 53.4104 11.168 53.4038C11.2861 51.2894 13.0435 49.6052 15.1867 49.6052C17.1261 49.6052 18.7497 50.9841 19.1285 52.8129L19.1302 52.82C19.1429 52.882 19.154 52.9445 19.1638 53.0076L19.1657 53.018C19.1727 53.0638 19.1779 53.1101 19.1833 53.1564C19.1857 53.1775 19.1891 53.1983 19.1912 53.2194C19.1949 53.2554 19.1968 53.2921 19.1995 53.3285C19.2019 53.3602 19.2052 53.3916 19.2068 53.4235C19.2085 53.4563 19.2085 53.4896 19.2093 53.5226C19.2102 53.5586 19.212 53.5944 19.212 53.6306C19.2122 55.8504 17.4063 57.6562 15.1867 57.6562ZM46.1301 57.6562C43.9104 57.6562 42.1045 55.8504 42.1045 53.6307C42.1045 53.5783 42.1065 53.5263 42.1085 53.4743C42.1091 53.4576 42.109 53.4405 42.1098 53.4238C42.1118 53.3852 42.1156 53.3471 42.1186 53.3088C42.121 53.2791 42.1224 53.2491 42.1254 53.2196C42.1267 53.207 42.1288 53.1947 42.1301 53.1823C42.1437 53.06 42.1621 52.939 42.1865 52.8203C42.1872 52.8168 42.1881 52.8134 42.1889 52.8099C42.569 50.9826 44.1915 49.6053 46.1301 49.6053C46.6849 49.6053 47.214 49.7181 47.6954 49.9222C49.1398 50.5341 50.1554 51.966 50.1554 53.6308C50.1554 55.8504 48.3497 57.6562 46.1301 57.6562ZM55.7071 52.4588L52.3913 52.4587C52.3874 52.4379 52.3824 52.4175 52.3783 52.3968C52.3507 52.2591 52.3189 52.1222 52.283 51.9864C52.267 51.927 52.2502 51.8679 52.2325 51.809C52.2215 51.7724 52.2107 51.7358 52.1992 51.6994C52.1795 51.6382 52.1588 51.5772 52.1372 51.5166C52.1257 51.4842 52.1148 51.4513 52.1027 51.4191C52.0766 51.3492 52.0492 51.2799 52.0205 51.211C52.0115 51.1892 52.0033 51.1669 51.994 51.1452C51.9553 51.0542 51.9145 50.9641 51.8717 50.875C51.8663 50.8639 51.8604 50.8532 51.855 50.8422C51.8176 50.7656 51.7787 50.6897 51.7383 50.6146C51.7234 50.5871 51.7076 50.5602 51.6924 50.5329C51.6602 50.4749 51.6271 50.4175 51.5931 50.3606C51.5746 50.3297 51.5554 50.2995 51.5363 50.2689C51.484 50.1846 51.4296 50.1016 51.373 50.0201C51.3174 49.9395 51.26 49.8602 51.2008 49.7821C51.1638 49.7337 51.1261 49.6858 51.0878 49.6385C51.0649 49.6102 51.0424 49.5819 51.0191 49.554C50.9774 49.5043 50.9349 49.4553 50.8917 49.4069C50.8704 49.383 50.8497 49.3585 50.828 49.3349C50.7742 49.2763 50.7193 49.2188 50.6633 49.1623C50.6513 49.1501 50.6398 49.1374 50.6276 49.1253C50.5585 49.0563 50.4879 48.989 50.4157 48.9233C50.4004 48.9092 50.3843 48.896 50.3687 48.882C50.3122 48.8315 50.2551 48.7815 50.1967 48.7329C50.1711 48.7116 50.1448 48.6912 50.1189 48.6704C50.0695 48.6304 50.0195 48.5911 49.969 48.5525C49.9392 48.53 49.9091 48.5081 49.879 48.4861C49.7516 48.3927 49.6207 48.3043 49.4865 48.221C49.4537 48.2004 49.4208 48.1802 49.3875 48.1602C49.3356 48.1292 49.2831 48.0993 49.2303 48.0698C49.1978 48.0516 49.1654 48.0331 49.1326 48.0155C49.0752 47.9847 49.017 47.9553 48.9585 47.9262C48.9294 47.9117 48.9007 47.8966 48.8714 47.8826C48.7948 47.8461 48.7175 47.8111 48.6395 47.7776C48.6276 47.7725 48.6158 47.7667 48.6038 47.7616C48.5131 47.7233 48.4215 47.6871 48.3291 47.6531C48.3027 47.6433 48.2759 47.6348 48.2493 47.6254C48.1829 47.602 48.1165 47.5789 48.0492 47.5575C48.014 47.5464 47.9783 47.5363 47.9428 47.5258C47.8832 47.5081 47.8234 47.4906 47.7631 47.4746C47.7244 47.4643 47.6855 47.4549 47.6465 47.4453C47.548 47.421 47.4489 47.3992 47.3494 47.3798C47.2904 47.3684 47.2313 47.3578 47.172 47.348C47.1313 47.3413 47.0906 47.3345 47.0497 47.3287C46.9881 47.3199 46.9263 47.3121 46.8645 47.3051C46.8252 47.3006 46.7861 47.2956 46.7466 47.2919C46.678 47.2856 46.6094 47.2803 46.5407 47.2762C46.507 47.2741 46.4738 47.271 46.44 47.2694C46.3367 47.2643 46.2333 47.2617 46.1299 47.2615C46.026 47.2615 45.9226 47.2645 45.8199 47.2694C45.7861 47.271 45.7527 47.2741 45.7191 47.2762C45.6503 47.2806 45.5816 47.2853 45.5134 47.2919C45.4738 47.2958 45.4347 47.3007 45.3953 47.3052C45.3334 47.3124 45.2717 47.3199 45.2104 47.3288C45.1693 47.3348 45.1285 47.3415 45.0877 47.3483C44.9876 47.3649 44.8879 47.3838 44.7886 47.4049C44.7303 47.4175 44.6721 47.431 44.6141 47.4453C44.5747 47.4549 44.5355 47.4645 44.4965 47.4748C44.4367 47.4906 44.3775 47.5079 44.3185 47.5254C44.2824 47.5362 44.246 47.5464 44.2102 47.5578C44.1445 47.5788 44.0791 47.601 44.0141 47.6242C43.9862 47.6341 43.958 47.6431 43.9302 47.6534C43.8381 47.6874 43.7469 47.7233 43.6569 47.7613C43.642 47.7677 43.6275 47.7747 43.6126 47.7812C43.5375 47.8136 43.463 47.847 43.3894 47.8822C43.3583 47.897 43.328 47.913 43.2972 47.9283C43.2407 47.9566 43.1842 47.9849 43.1286 48.0147C43.0943 48.0331 43.0604 48.0524 43.0265 48.0715C42.9753 48.1001 42.9245 48.1293 42.8741 48.1592C42.7556 48.2304 42.6393 48.3051 42.5254 48.3833C42.478 48.416 42.4311 48.4494 42.3846 48.4835C42.3526 48.5068 42.3205 48.53 42.289 48.5539C42.2408 48.5904 42.1936 48.6281 42.1465 48.6659C42.1181 48.6888 42.0894 48.711 42.0614 48.7343C42.0073 48.7795 41.9543 48.826 41.9017 48.8727C41.8821 48.8901 41.8621 48.9069 41.8428 48.9244C41.7716 48.9892 41.702 49.0556 41.6339 49.1235C41.6167 49.1406 41.6004 49.1587 41.5833 49.176C41.5328 49.2276 41.4826 49.2795 41.4338 49.3328C41.4094 49.3595 41.3858 49.387 41.3619 49.414C41.3217 49.4594 41.2818 49.5049 41.2429 49.5514C41.2176 49.5817 41.1929 49.6126 41.1682 49.6434C41.1321 49.6881 41.0965 49.7331 41.0616 49.7788C40.9779 49.889 40.8977 50.0018 40.821 50.1169C40.789 50.165 40.7581 50.2137 40.7275 50.2627C40.7065 50.2962 40.6853 50.3296 40.665 50.3635C40.6334 50.4161 40.6031 50.4695 40.5731 50.5232C40.5556 50.5545 40.5374 50.5854 40.5203 50.6172C40.4842 50.684 40.4499 50.752 40.4162 50.8202C40.4067 50.8394 40.3965 50.858 40.3873 50.8774C40.3451 50.965 40.305 51.0536 40.2669 51.143C40.2553 51.1703 40.2449 51.1982 40.2337 51.2258C40.2078 51.2889 40.1822 51.3523 40.1583 51.4165C40.1449 51.4524 40.1329 51.4887 40.1201 51.5247C40.0999 51.5817 40.0805 51.6389 40.0619 51.6964C40.0493 51.7355 40.0377 51.7751 40.0259 51.8146C39.9971 51.911 39.9706 52.008 39.9465 52.1056C39.9326 52.162 39.9196 52.2187 39.9072 52.2758C39.8981 52.3171 39.8892 52.3585 39.881 52.4001C39.8772 52.4198 39.8724 52.4391 39.8687 52.4588L21.4476 52.4585C21.4437 52.4382 21.4389 52.4181 21.4349 52.3979C21.427 52.3578 21.4184 52.3181 21.4098 52.2783C21.3758 52.1215 21.3357 51.9659 21.2897 51.8122C21.2783 51.774 21.267 51.7358 21.2549 51.6978C21.2359 51.6389 21.2161 51.5804 21.1954 51.5221C21.1831 51.4872 21.1712 51.452 21.1583 51.4174C21.1339 51.3522 21.1083 51.2875 21.0816 51.2232C21.0708 51.1967 21.0607 51.1697 21.0495 51.1435C21.0113 51.0538 20.9711 50.965 20.9288 50.8771C20.9202 50.8594 20.9108 50.8423 20.9022 50.8247C20.8679 50.7548 20.8324 50.6855 20.7955 50.6169C20.7789 50.5859 20.7611 50.5556 20.7438 50.525C20.7134 50.4707 20.6828 50.4166 20.6508 50.3634C20.6306 50.3297 20.6097 50.2968 20.5889 50.2636C20.5582 50.2143 20.5269 50.1654 20.4948 50.1169C20.4181 50.0019 20.3379 49.8893 20.2543 49.7792C20.2195 49.7335 20.1839 49.6885 20.1478 49.6438C20.123 49.613 20.0983 49.582 20.0729 49.5516C20.034 49.5055 19.9945 49.4598 19.9543 49.4147C19.9302 49.3876 19.9065 49.3599 19.882 49.3331C19.8338 49.2803 19.7841 49.2289 19.734 49.1778C19.7165 49.1599 19.6997 49.1413 19.6819 49.1238C19.6139 49.0559 19.5444 48.9897 19.4734 48.925C19.4537 48.907 19.4331 48.89 19.4132 48.8722C19.3611 48.8255 19.3083 48.7798 19.2547 48.7349C19.2264 48.7114 19.1973 48.6888 19.1686 48.6657C19.122 48.6282 19.0751 48.5908 19.0273 48.5546C18.9955 48.5304 18.9632 48.5071 18.931 48.4836C18.8847 48.4497 18.838 48.4165 18.7909 48.3838C18.7103 48.3285 18.6284 48.2749 18.5454 48.2232C18.511 48.2016 18.4763 48.1803 18.4415 48.1594C18.3914 48.1296 18.3409 48.1006 18.2901 48.0722C18.2558 48.053 18.2217 48.0336 18.187 48.0151C18.1317 47.9856 18.076 47.957 18.0198 47.9293C17.9886 47.9137 17.9578 47.8975 17.9263 47.8824C17.8536 47.8478 17.7802 47.8146 17.7062 47.7827C17.6904 47.7758 17.6749 47.7683 17.659 47.7615C17.5689 47.7234 17.4779 47.6875 17.3861 47.6536C17.3578 47.6432 17.3291 47.6341 17.3006 47.624C17.2361 47.601 17.1713 47.579 17.1061 47.558C17.07 47.5465 17.0333 47.5362 16.9969 47.5254C16.9381 47.5078 16.8791 47.491 16.8198 47.4751C16.7806 47.4646 16.7411 47.455 16.7016 47.4454C16.5452 47.4067 16.3874 47.3743 16.2284 47.3484C16.1876 47.3417 16.1468 47.3349 16.1057 47.3289C16.0441 47.3202 15.9824 47.3123 15.9206 47.3054C15.8814 47.3008 15.8422 47.2959 15.8027 47.292C15.7342 47.2857 15.6656 47.2805 15.5968 47.2763C15.5632 47.2742 15.5299 47.2711 15.4962 47.2695C15.3929 47.2644 15.2895 47.2618 15.1861 47.2617C15.0822 47.2617 14.9789 47.2646 14.876 47.2695C14.8423 47.2711 14.8089 47.2742 14.7752 47.2763C14.7065 47.2808 14.6378 47.2854 14.5696 47.292C14.53 47.2959 14.4907 47.3008 14.4513 47.3054C14.3897 47.3123 14.3281 47.3202 14.2667 47.3289C14.2254 47.3349 14.1845 47.3417 14.1436 47.3484C14.0435 47.3648 13.9438 47.3837 13.8447 47.405C13.7865 47.4175 13.7288 47.431 13.6711 47.4452C13.6314 47.4549 13.5915 47.4646 13.5522 47.4751C13.4933 47.4909 13.4347 47.5076 13.3764 47.5251C13.3396 47.536 13.3026 47.5465 13.266 47.558C13.2015 47.5784 13.1378 47.6007 13.0742 47.6231C13.0447 47.6334 13.0151 47.6429 12.9859 47.6536C12.8943 47.6875 12.8036 47.7231 12.714 47.761C12.6959 47.7687 12.6782 47.7773 12.6601 47.7851C12.5885 47.8162 12.5173 47.8481 12.447 47.8817C12.4142 47.8974 12.382 47.9143 12.3495 47.9306C12.2947 47.9577 12.2403 47.9855 12.1863 48.0142C12.1507 48.0333 12.1157 48.0534 12.0804 48.0732C12.0307 48.1011 11.9811 48.1292 11.9323 48.1585C11.8487 48.2086 11.7662 48.2604 11.6849 48.3141C11.6497 48.3373 11.6148 48.3608 11.5801 48.3847C11.5342 48.4163 11.489 48.4488 11.4438 48.4816C11.4104 48.506 11.3768 48.5302 11.3439 48.5553C11.2978 48.5903 11.2526 48.6263 11.2075 48.6625C11.1771 48.6869 11.1464 48.7107 11.1167 48.7356C11.0659 48.7778 11.0165 48.8214 10.9671 48.8651C10.9442 48.8854 10.9207 48.9051 10.898 48.9257C10.8278 48.9898 10.759 49.0554 10.6916 49.1225C10.6708 49.1433 10.6508 49.1651 10.6302 49.1862C10.5834 49.2342 10.5369 49.2822 10.4917 49.3315C10.4653 49.3602 10.44 49.3899 10.4142 49.4191C10.376 49.4623 10.3379 49.5056 10.301 49.5499C10.2743 49.5817 10.2483 49.6143 10.2223 49.6468C10.1876 49.6897 10.1535 49.7331 10.12 49.777C10.0611 49.8544 10.0039 49.9332 9.94853 50.0132C9.92419 50.0482 9.90021 50.0835 9.87657 50.1189C9.84575 50.1653 9.81599 50.2123 9.78634 50.2594C9.76431 50.2946 9.74216 50.3295 9.72083 50.3651C9.69048 50.4156 9.66154 50.467 9.63259 50.5183C9.61384 50.5517 9.5945 50.5847 9.57622 50.6185C9.54246 50.6817 9.50976 50.7454 9.47814 50.8097C9.46665 50.8327 9.45446 50.8552 9.44333 50.8784C9.40161 50.9651 9.36189 51.0529 9.32403 51.1417C9.31114 51.172 9.29966 51.2028 9.28724 51.2333C9.26263 51.2936 9.23814 51.354 9.2154 51.4151C9.20146 51.4525 9.1888 51.4904 9.17556 51.5281C9.15611 51.5835 9.13689 51.639 9.11896 51.695C9.10607 51.7352 9.09411 51.7757 9.08204 51.8163C9.06575 51.871 9.04993 51.9258 9.03505 51.9811C9.00897 52.0781 8.98533 52.1757 8.96415 52.2739C8.95501 52.3161 8.94587 52.3581 8.93755 52.4007C8.9338 52.4199 8.92911 52.4389 8.92548 52.4581H3.70302C2.95349 52.4581 2.34376 51.8484 2.34376 51.0987V45.0004C2.34219 44.2451 2.59496 43.5113 3.06134 42.9171C3.52772 42.323 4.18054 41.9032 4.91462 41.7254C5.58247 41.5621 6.15611 41.376 6.6245 41.1705H49.1861C49.8332 41.1705 50.3579 40.6458 50.3579 39.9986C50.3579 39.3515 49.8332 38.8267 49.1861 38.8267H23.9993V17.6365C23.9993 16.2133 25.1574 15.0552 26.5806 15.0552H55.0277C57.2738 15.0552 57.609 18.2034 57.609 20.08V50.5567C57.609 52.2118 56.4174 52.4588 55.7071 52.4588Z" fill="#F1CDB3"></path>
    <path d="M50.4606 24.8147C50.4607 23.2763 49.3801 21.9863 47.9384 21.6615C47.9461 21.5806 47.9522 21.4992 47.9546 21.4169C47.9814 20.4633 47.6252 19.5567 46.9517 18.864C46.2667 18.1596 45.3101 17.7557 44.3269 17.7557C43.1389 17.7557 42.0808 18.3338 41.4183 19.2239C40.7563 18.3338 39.6973 17.7557 38.5066 17.7557C37.5321 17.7557 36.5821 18.1544 35.9002 18.8498C35.223 19.5402 34.8601 20.4483 34.8787 21.4064C34.8803 21.4923 34.8862 21.5773 34.8938 21.6618C33.4526 21.987 32.3727 23.2766 32.3727 24.8147C32.3727 26.1163 33.1464 27.2399 34.2576 27.7519C33.4748 28.7206 33.018 29.9464 33.018 31.2423C33.018 34.3028 35.5078 36.7927 38.5683 36.7927C39.5764 36.7927 40.5605 36.5172 41.4167 36.0051C42.2775 36.5202 43.2619 36.7924 44.265 36.7927C47.3255 36.7927 49.8154 34.3028 49.8154 31.2423C49.8154 29.9462 49.3586 28.7206 48.5758 27.7519C49.6871 27.2399 50.4606 26.1163 50.4606 24.8147ZM44.3269 20.0996C44.6809 20.0996 45.0251 20.2448 45.2713 20.4979C45.4997 20.7328 45.6205 21.0357 45.6118 21.3508C45.5915 22.0692 45.0091 22.6602 44.3133 22.6682C44.1269 22.668 43.9426 22.6279 43.773 22.5505C43.752 22.5408 43.7314 22.5304 43.7103 22.5209C43.6035 22.4646 43.5058 22.3927 43.4201 22.3077C43.1753 22.0648 43.0412 21.7384 43.0426 21.3885C43.0455 20.6778 43.6217 20.0996 44.3269 20.0996ZM37.5733 20.491C37.6946 20.3665 37.8398 20.2677 38.0001 20.2005C38.1604 20.1332 38.3326 20.0988 38.5064 20.0994C39.2138 20.0994 39.7899 20.6762 39.7907 21.3851C39.7916 21.5579 39.7578 21.7291 39.6913 21.8885C39.6248 22.048 39.527 22.1925 39.4036 22.3135C39.3199 22.3959 39.2248 22.466 39.1213 22.5217C39.083 22.5391 39.0456 22.5577 39.0078 22.5758C38.855 22.6389 38.691 22.6704 38.5258 22.6683C37.8204 22.6567 37.2355 22.0704 37.2218 21.3613C37.2155 21.0374 37.3404 20.7285 37.5733 20.491ZM34.7165 24.8148C34.7164 24.3245 35.1153 23.9257 35.6053 23.9257C36.0957 23.9257 36.4944 24.3245 36.4944 24.8148C36.4944 24.9155 36.4769 25.0118 36.4459 25.1022C36.4166 25.1611 36.3884 25.2207 36.3612 25.2808C36.2044 25.5341 35.9247 25.7038 35.6055 25.7038C35.1153 25.7038 34.7165 25.305 34.7165 24.8148ZM44.265 34.4492C43.5 34.4489 42.7603 34.175 42.1796 33.6769C41.9673 33.4945 41.6966 33.3943 41.4167 33.3946C41.1368 33.3944 40.8661 33.4946 40.6538 33.6769C40.0731 34.175 39.3334 34.4489 38.5683 34.4492C36.8002 34.4492 35.3617 33.0107 35.3617 31.2426C35.3617 29.9023 36.2068 28.6919 37.4644 28.2307C37.6707 28.1551 37.8516 28.023 37.9864 27.8495C38.1212 27.676 38.2045 27.4681 38.2268 27.2495C38.2597 26.9273 38.3411 26.6118 38.4682 26.3139C38.51 26.2346 38.5491 26.1537 38.5843 26.0707C38.8951 25.4851 39.3806 25.0108 39.9733 24.7136C40.0243 24.6912 40.0746 24.6676 40.1246 24.6428C40.532 24.4648 40.972 24.3731 41.4167 24.3737C41.8748 24.3737 42.311 24.4692 42.7063 24.6417C42.7562 24.6665 42.8066 24.6899 42.8576 24.7123C43.4514 25.0094 43.9378 25.4843 44.2491 26.0707C44.2843 26.1537 44.3234 26.2346 44.3651 26.3139C44.4923 26.6118 44.5737 26.9273 44.6065 27.2495C44.6288 27.4681 44.7121 27.676 44.847 27.8495C44.9818 28.023 45.1626 28.1551 45.3689 28.2307C46.6266 28.692 47.4716 29.9023 47.4716 31.2426C47.4716 33.0106 46.0332 34.4492 44.265 34.4492ZM47.228 25.7038C46.9088 25.7038 46.6291 25.5341 46.4723 25.2808C46.4451 25.2208 46.4168 25.1612 46.3875 25.1022C46.3556 25.0097 46.3392 24.9126 46.339 24.8148C46.339 24.3245 46.7378 23.9257 47.2281 23.9257C47.7183 23.9257 48.1171 24.3245 48.1171 24.8148C48.117 25.3049 47.7182 25.7038 47.228 25.7038Z" fill="#F1CDB3"></path>
    <path d="M55.0428 39.7758C55.0278 39.7007 55.0054 39.6273 54.9761 39.5566C54.9469 39.4857 54.9108 39.4178 54.8683 39.3539C54.8261 39.2897 54.7774 39.23 54.723 39.1758C54.6687 39.1214 54.6091 39.0727 54.5449 39.0305C54.4168 38.9457 54.2735 38.8864 54.123 38.8559C53.9722 38.8254 53.8168 38.8254 53.666 38.8559C53.591 38.8712 53.5171 38.8934 53.4456 38.9227C53.3753 38.952 53.3074 38.9884 53.2441 39.0305C53.1796 39.0727 53.1199 39.1219 53.066 39.1758C53.0119 39.2297 52.9627 39.2895 52.9195 39.3539C52.8773 39.4172 52.8408 39.4852 52.8128 39.5566C52.7835 39.627 52.7601 39.7008 52.746 39.7758C52.7308 39.8508 52.7226 39.9281 52.7226 40.0043C52.7226 40.0803 52.7308 40.1578 52.746 40.234C52.7601 40.3078 52.7835 40.3816 52.8128 40.4531C52.8421 40.5234 52.8785 40.5914 52.9206 40.6547C52.9627 40.7191 53.0119 40.7789 53.066 40.8328C53.1199 40.8867 53.1796 40.9359 53.2441 40.9793C53.3074 41.0215 53.3753 41.0566 53.4456 41.0859C53.5171 41.1152 53.591 41.1387 53.666 41.1527C53.7411 41.168 53.8184 41.1762 53.8945 41.1762C53.9706 41.1762 54.0481 41.168 54.123 41.1527C54.198 41.1387 54.2718 41.1152 54.3421 41.0859C54.4136 41.0566 54.4816 41.0215 54.5449 40.9793C54.6094 40.9359 54.6692 40.8867 54.723 40.8328C54.7769 40.7789 54.8261 40.7191 54.8683 40.6547C54.9104 40.5914 54.9468 40.5234 54.9761 40.4531C55.0054 40.3816 55.0276 40.3078 55.0428 40.234C55.0581 40.1578 55.0662 40.0803 55.0662 40.0043C55.0662 39.9281 55.0581 39.8508 55.0428 39.7758Z" fill="#F1CDB3"></path>
    <path d="M41.4167 0C40.7696 0 40.2448 0.524648 40.2448 1.17188V3.13359C40.2448 3.78082 40.7696 4.30547 41.4167 4.30547C42.0639 4.30547 42.5885 3.7807 42.5885 3.13359V1.17188C42.5885 0.524648 42.0639 0 41.4167 0Z" fill="#F1CDB3"></path>
    <path d="M36.4797 4.55659L34.844 3.27234C34.723 3.1773 34.5844 3.10703 34.4362 3.06555C34.288 3.02407 34.1331 3.01218 33.9803 3.03057C33.8275 3.04896 33.6798 3.09727 33.5457 3.17273C33.4116 3.24819 33.2936 3.34934 33.1986 3.47038C32.799 3.97944 32.8877 4.71608 33.3966 5.11569L35.0323 6.39995C35.2384 6.56221 35.493 6.65035 35.7553 6.65015C35.933 6.65039 36.1084 6.61017 36.2682 6.53253C36.4281 6.45488 36.5681 6.34186 36.6778 6.20202C37.0775 5.69284 36.9888 4.9562 36.4797 4.55659Z" fill="#F1CDB3"></path>
    <path d="M49.6348 3.47021C49.2352 2.96115 48.4987 2.87244 47.9894 3.27216L46.3537 4.55642C45.8446 4.95603 45.7559 5.69267 46.1556 6.20185C46.2652 6.34177 46.4053 6.45487 46.5651 6.53254C46.725 6.61021 46.9004 6.65042 47.0781 6.6501C47.3404 6.65028 47.5951 6.56214 47.8011 6.3999L49.4368 5.11564C49.9459 4.71603 50.0346 3.97939 49.6348 3.47021Z" fill="#F1CDB3"></path>
  </symbol>
</svg>